<svg width="960" height="960" viewBox="0 0 960 960" fill="none" xmlns="http://www.w3.org/2000/svg">
<path d="M540.5 876.558L579 856.5L627.6 834.536C629.864 833.513 632.051 832.329 634.144 830.991C643.776 824.838 651.097 815.666 654.962 804.909L656.611 800.321C659.184 793.161 660.5 785.61 660.5 778.001V184.077C660.5 171.569 657.286 159.271 651.166 148.362L649 144.5L643.155 136.057C635.218 124.593 624.163 115.641 611.299 110.261L603.5 107L579 98L551 90.9207L553.5 91.5L512.5 82M540.5 876.558L601 846.558L531.427 881.057C528.186 882.664 524.618 883.5 521 883.5H489L460 880.5L340.101 866.112C328.62 864.734 317.795 860.019 308.967 852.549C305.006 849.198 301.504 845.339 298.551 841.073L297.646 839.766C289.411 827.872 285 813.75 285 799.284V789.5V152.722C285 140.521 288.657 128.601 295.5 118.5L298.96 113.195C301.63 109.1 305.033 105.532 308.996 102.67C310.994 101.226 313.122 99.9718 315.353 98.9222L316.766 98.2572C319.252 97.0873 321.82 96.1 324.449 95.3032L329.334 93.823C334.429 92.279 339.678 91.297 344.987 90.8946L489.512 79.9393C501.963 78.9956 514.447 81.2609 525.771 86.5188L526.337 86.7815C533.073 89.9089 539.292 94.0458 544.78 99.0494L545.061 99.3052C550.653 104.404 555.418 110.341 559.186 116.905L559.592 117.612C565.762 128.36 569.095 140.502 569.275 152.895L579 821.5C577.776 845.667 562.76 867.07 540.5 876.558Z" fill="none" stroke="black" stroke-width="40" stroke-linecap="round"/>
<path d="M433.5 753.5H408M608.5 603V634M608.5 675.5V753.5" fill="none" stroke="black" stroke-width="20" stroke-linecap="round"/>
</svg>
